<?xml version="1.0" encoding="UTF-8"?>
<svg width="193px" height="112px" viewBox="0 0 193 112" version="1.1" xmlns="http://www.w3.org/2000/svg" xmlns:xlink="http://www.w3.org/1999/xlink">
    <title>Group</title>
    <g id="Page-1" stroke="none" stroke-width="1" fill="none" fill-rule="evenodd">
        <g id="Artboard-Copy-3" transform="translate(-1435.000000, -1004.000000)" fill="#002E8C" fill-rule="nonzero">
            <g id="Group" transform="translate(1435.027681, 1004.253555)">
                <g id="line-shape" transform="translate(50.500000, 41.500000) scale(-1, -1) rotate(10.000000) translate(-50.500000, -41.500000) translate(6.000000, 8.000000)">
                    <path d="M87.8911388,65.831083 C88.5044196,65.8106005 88.9899335,65.0545678 88.9766013,64.1426044 L88.7521761,49.2801283 C88.7377329,48.3679997 88.2299987,47.6453336 87.6167179,47.665816 C87.0023262,47.6862984 86.5168123,48.4423311 86.5301445,49.3542945 L86.7301273,62.5654578 L77.8442228,62.862453 C77.230942,62.8829354 76.7443171,63.6389681 76.7587603,64.5509315 C76.7720925,65.4630601 77.2809378,66.1857262 77.8942185,66.1652438 L87.8911388,65.831083 Z M69.9415672,41.2181472 L70.6215089,39.9109061 C70.6003996,39.8867897 70.5781793,39.8638295 70.555959,39.8420257 L69.9415672,41.2181472 Z M36.7644128,30.9757791 L37.384804,29.605604 L37.384804,29.6054389 L36.7644128,30.9757791 Z M33.606017,16.428468 L34.2138538,15.0457392 L34.2137427,15.045574 L33.606017,16.428468 Z M2.23204127,0.179794248 C1.62364901,0.0615247691 1.06591906,0.698957618 0.98637033,1.60348788 C0.906821598,2.50801814 1.3355626,3.33722594 1.94406597,3.45549542 L2.23204127,0.179794248 Z M88.6332974,62.985843 C86.0879602,59.367722 78.7963633,49.3009411 70.6215089,39.9109061 L69.2627366,42.5253884 C77.3520428,51.8161497 84.5803117,61.7955499 87.0978735,65.3736972 L88.6332974,62.985843 Z M36.1439105,32.3459541 C37.5888976,33.7922775 39.1153223,34.5139526 40.4174328,34.3529013 C41.0762652,34.2713019 41.7252095,33.9541547 42.2446094,33.3031771 C42.7792303,32.6330384 43.0999805,31.7025748 43.1790848,30.6346806 C43.329072,28.6098939 42.6162442,26.2511116 41.2352516,23.7715821 C39.8194841,21.2296142 37.5551228,18.2922033 34.2138538,15.0457392 L32.9981803,17.8110316 C36.2283477,20.9496326 38.298059,23.6777593 39.5237317,25.8784636 C40.7841791,28.1416063 41.0200478,29.6029611 40.9703854,30.2729346 C40.9497205,30.5525858 40.8836151,30.6880341 40.8123989,30.7773969 C40.7258508,30.8857555 40.549977,31.021369 40.2330042,31.060682 C39.5835043,31.1409599 38.5544815,30.7762406 37.384804,29.605604 L36.1439105,32.3459541 Z M34.2137427,15.045574 C24.8133267,5.91239518 12.9622321,2.26553267 2.23204127,0.179794248 L1.94406597,3.45549542 C12.6168172,5.53016673 24.0410596,9.10864437 32.9982914,17.8111968 L34.2137427,15.045574 Z M70.555959,39.8420257 C61.6011715,31.0028687 51.9642202,27.2068479 45.1342505,26.2098164 C41.7428747,25.7147694 38.9405595,25.8941558 37.2289285,26.5829599 C36.794188,26.7578864 36.3848898,26.9826975 36.0399194,27.2795275 C35.7101699,27.563143 35.3289804,28.0071491 35.1217759,28.6956228 C34.8849073,29.483205 34.962234,30.2929215 35.2117682,30.9481939 C35.4348602,31.5337599 35.7862745,31.9880072 36.1439105,32.3459541 L37.384804,29.6054389 C37.1618232,29.3824447 37.1271595,29.2727646 37.145269,29.3201715 C37.1899319,29.4374499 37.2433717,29.7349406 37.1501575,30.0446547 C37.0868296,30.2552603 37.0169467,30.2557558 37.1527128,30.138973 C37.2732581,30.0352394 37.4837955,29.9027644 37.8093232,29.771776 C39.1389869,29.2367552 41.6286623,29.0175603 44.917158,29.4975758 C51.4464869,30.4506692 60.7212469,34.100505 69.3271755,42.5942688 L70.555959,39.8420257 Z" id="Shape"></path>
                </g>
                <path d="M105.992314,65.1927666 C107.268356,65.1927666 108.349085,64.8802666 109.234502,64.2552666 C110.14596,63.6042249 110.731898,63.0443291 110.992314,62.5755791 C111.278773,62.1328707 111.422002,61.3906832 111.422002,60.3490166 C111.422002,59.4896416 111.23971,58.6693291 110.875127,57.8880791 C110.536585,57.1068291 110.132939,56.6250582 109.664189,56.4427666 C109.403773,56.3125582 109.091273,56.1693291 108.726689,56.0130791 C109.143356,55.7526624 109.560023,55.4531832 109.976689,55.1146416 C111.096481,53.6823499 111.369918,52.1068291 110.797002,50.3880791 C109.885543,47.7057874 107.711064,46.3516207 104.273564,46.3255791 C103.257939,46.3255791 102.593877,46.3646416 102.281377,46.4427666 C101.968877,46.5469332 101.591273,46.8203707 101.148564,47.2630791 C100.757939,47.6537041 100.510543,48.0703707 100.406377,48.5130791 C100.30221,48.9297457 100.185023,49.8542249 100.054814,51.2865166 C99.9766892,52.2240166 99.9376267,53.2266207 99.9376267,54.2943291 C99.9376267,55.5703707 99.98971,56.9505791 100.093877,58.4349541 C100.250127,61.1432874 100.471481,62.7318291 100.757939,63.2005791 C101.382939,64.1641207 102.64596,64.7891207 104.547002,65.0755791 C105.067835,65.1537041 105.549606,65.1927666 105.992314,65.1927666 Z M103.140752,55.3099541 C102.906377,55.3099541 102.672002,55.2969332 102.437627,55.2708916 C102.437627,54.0990166 102.450648,52.9401624 102.476689,51.7943291 C102.502731,50.6745374 102.698043,49.8151624 103.062627,49.2162041 C103.453252,48.6953707 104.039189,48.4349541 104.820439,48.4349541 C105.106898,48.4349541 105.406377,48.4740166 105.718877,48.5521416 C106.474085,48.7344332 107.125127,49.1641207 107.672002,49.8412041 C108.244918,50.4922457 108.531377,51.1563082 108.531377,51.8333916 C108.505335,52.8490166 107.867314,53.7083916 106.617314,54.4115166 C105.549606,55.0104749 104.390752,55.3099541 103.140752,55.3099541 Z M105.601689,62.5755791 C104.638148,62.5755791 103.935023,62.4193291 103.492314,62.1068291 C103.205856,61.8984957 103.010543,61.6510999 102.906377,61.3646416 C102.80221,61.0781832 102.750127,60.5964124 102.750127,59.9193291 C102.750127,58.9557874 102.880335,58.3828707 103.140752,58.2005791 C103.375127,58.0443291 104.169398,57.9271416 105.523564,57.8490166 L105.523564,57.8490166 L105.875127,57.8490166 C106.760543,57.8490166 107.463668,58.0443291 107.984502,58.4349541 C108.557418,58.8516207 108.843877,59.4766207 108.843877,60.3099541 L108.843877,60.3099541 L108.843877,60.3880791 C108.843877,60.9609957 108.791793,61.3516207 108.687627,61.5599541 C108.58346,61.7682874 108.310023,61.9635999 107.867314,62.1458916 C107.294398,62.4323499 106.539189,62.5755791 105.601689,62.5755791 Z M117.536064,66.2474541 C118.343356,66.2474541 119.137627,66.0000582 119.918877,65.5052666 C121.090752,64.7240166 121.963148,63.5912041 122.536064,62.1068291 C122.848564,61.3255791 123.004814,60.1276624 123.004814,58.5130791 C123.004814,58.0964124 122.991793,57.6537041 122.965752,57.1849541 C122.887627,54.8932874 122.62721,53.5130791 122.184502,53.0443291 C121.819918,52.6276624 121.481377,52.4193291 121.168877,52.4193291 C120.960543,52.4193291 120.75221,52.5104749 120.543877,52.6927666 C120.335543,52.9271416 120.270439,54.3464124 120.348564,56.9505791 C120.371351,57.691139 120.384168,58.3245313 120.387016,58.8507561 L120.387016,59.2755608 C120.384168,59.7405469 120.371351,60.0983655 120.348564,60.3490166 C120.296481,60.9479749 120.12721,61.4688082 119.840752,61.9115166 C119.398043,62.6146416 118.916273,63.1224541 118.395439,63.4349541 C118.056898,63.6432874 117.744398,63.7474541 117.457939,63.7474541 C116.286064,63.7474541 115.59596,61.5859957 115.387627,57.2630791 C115.335543,56.4037041 115.28346,55.7005791 115.231377,55.1537041 C115.153252,54.6068291 115.049085,54.1771416 114.918877,53.8646416 C114.81471,53.5521416 114.684502,53.3438082 114.528252,53.2396416 C114.34596,53.1615166 114.137627,53.1615166 113.903252,53.2396416 C113.590752,53.3698499 113.369398,53.7344332 113.239189,54.3333916 C113.135023,54.9583916 113.082939,56.0391207 113.082939,57.5755791 C113.082939,60.1537041 113.343356,62.1198499 113.864189,63.4740166 C114.411064,64.8281832 115.257418,65.6875582 116.403252,66.0521416 C116.793877,66.1823499 117.171481,66.2474541 117.536064,66.2474541 Z M127.126689,64.5677666 C127.725648,64.5677666 128.090231,64.2422457 128.220439,63.5912041 C128.272523,63.2526624 128.298564,62.6797457 128.298564,61.8724541 C128.298564,61.1693291 128.272523,60.2708916 128.220439,59.1771416 C128.142314,56.5469332 128.025127,54.8412041 127.868877,54.0599541 C127.790752,53.6432874 127.556377,53.4089124 127.165752,53.3568291 L127.165752,53.3568291 L127.048564,53.3568291 C126.710023,53.3568291 126.397523,53.5260999 126.111064,53.8646416 C125.850648,54.2031832 125.720439,55.6615166 125.720439,58.2396416 L125.720439,58.2396416 L125.720439,58.9818291 C125.746481,61.3516207 125.837627,62.8750582 125.993877,63.5521416 C126.150127,64.2292249 126.527731,64.5677666 127.126689,64.5677666 Z M133.553252,65.2708916 C133.943877,65.2708916 134.282418,65.1146416 134.568877,64.8021416 C134.855335,64.5417249 134.998564,64.2292249 134.998564,63.8646416 C134.998564,63.7865166 134.985543,63.6953707 134.959502,63.5912041 C134.855335,63.1224541 134.594918,62.8099541 134.178252,62.6537041 C133.68346,62.4714124 133.318877,62.1719332 133.084502,61.7552666 C132.90221,61.3385999 132.785023,60.6484957 132.732939,59.6849541 C132.654814,58.7214124 132.602731,57.0938082 132.576689,54.8021416 C132.550648,50.6875582 132.394398,48.4740166 132.107939,48.1615166 C131.821481,47.8229749 131.522002,47.6537041 131.209502,47.6537041 C130.923043,47.6537041 130.675648,47.8359957 130.467314,48.2005791 C130.206898,48.7214124 130.024606,50.9870374 129.920439,54.9974541 L129.920439,54.9974541 L129.920439,57.9271416 C129.920439,60.1927666 129.998564,61.5859957 130.154814,62.1068291 C130.545439,63.3307874 131.235543,64.2422457 132.225127,64.8412041 C132.719918,65.1276624 133.162627,65.2708916 133.553252,65.2708916 Z M141.581377,66.1302666 C142.128252,66.1302666 142.623043,66.0651624 143.065752,65.9349541 C143.586585,65.7787041 144.107418,65.5052666 144.628252,65.1146416 C145.123043,64.6198499 145.487627,64.2422457 145.722002,63.9818291 C146.399085,65.0755791 147.037106,65.5573499 147.636064,65.4271416 C148.261064,65.3229749 148.573564,64.9193291 148.573564,64.2162041 C148.573564,63.7734957 148.456377,63.2135999 148.222002,62.5365166 C147.909502,61.7813082 147.636064,60.4401624 147.401689,58.5130791 C147.167314,56.6120374 147.050127,54.8932874 147.050127,53.3568291 C147.180335,51.1432874 146.972002,49.6068291 146.425127,48.7474541 C146.112627,48.5130791 145.813148,48.3828707 145.526689,48.3568291 C145.266273,48.3568291 145.005856,48.4609957 144.745439,48.6693291 C144.458981,48.9037041 144.28971,49.2162041 144.237627,49.6068291 C144.185543,49.9193291 144.159502,50.1276624 144.159502,50.2318291 C144.13346,50.3359957 144.120439,50.5964124 144.120439,51.0130791 C144.146481,51.2995374 144.159502,51.5469332 144.159502,51.7552666 C144.13346,51.9896416 144.146481,52.2760999 144.198564,52.6146416 C144.224606,52.9531832 144.224606,53.2526624 144.198564,53.5130791 C144.198564,53.7474541 144.211585,53.9557874 144.237627,54.1380791 C143.35221,54.1120374 142.675127,54.0859957 142.206377,54.0599541 C140.800127,53.9818291 139.75846,54.2031832 139.081377,54.7240166 C138.326168,55.2708916 137.740231,55.9479749 137.323564,56.7552666 C136.906898,57.5885999 136.672523,58.7214124 136.620439,60.1537041 C136.594398,60.3880791 136.581377,60.6224541 136.581377,60.8568291 C136.581377,61.5599541 136.646481,62.1849541 136.776689,62.7318291 C136.932939,63.4609957 137.180335,64.0469332 137.518877,64.4896416 C137.935543,65.0365166 138.378252,65.4141207 138.847002,65.6224541 C139.341793,65.8047457 140.123043,65.9740166 141.190752,66.1302666 L141.190752,66.1302666 L141.581377,66.1302666 Z M141.464189,63.2787041 C140.682939,63.2526624 140.083981,62.9922457 139.667314,62.4974541 C139.250648,62.0287041 139.042314,61.4557874 139.042314,60.7787041 L139.042314,60.7787041 L139.042314,60.7005791 C139.094398,58.9037041 139.537106,57.7057874 140.370439,57.1068291 C140.813148,56.7422457 141.360023,56.5469332 142.011064,56.5208916 L142.011064,56.5208916 L142.167314,56.5208916 C142.740231,56.5208916 143.19596,56.7031832 143.534502,57.0677666 C143.951168,57.3281832 144.237627,57.8750582 144.393877,58.7083916 C144.419918,58.9167249 144.432939,59.1250582 144.432939,59.3333916 C144.432939,59.8281832 144.380856,60.2839124 144.276689,60.7005791 C144.146481,61.2995374 144.003252,61.7552666 143.847002,62.0677666 C143.638668,62.4844332 143.339189,62.7839124 142.948564,62.9662041 C142.557939,63.1745374 142.063148,63.2787041 141.464189,63.2787041 Z M103.922002,85.6224541 C106.213668,85.6224541 107.411585,84.7630791 107.515752,83.0443291 C107.541793,82.8880791 107.554814,82.7448499 107.554814,82.6146416 C107.554814,82.2500582 107.502731,81.9505791 107.398564,81.7162041 C107.268356,81.4037041 106.955856,80.9609957 106.461064,80.3880791 C105.575648,79.4505791 104.703252,78.6953707 103.843877,78.1224541 C102.906377,77.4453707 102.437627,76.8724541 102.437627,76.4037041 C102.437627,75.8307874 102.724085,75.3880791 103.297002,75.0755791 C103.843877,74.7630791 104.507939,74.6719332 105.289189,74.8021416 C106.070439,74.9323499 106.55221,74.8542249 106.734502,74.5677666 C106.916793,74.2813082 106.773564,73.8385999 106.304814,73.2396416 C105.862106,72.7188082 105.211064,72.4453707 104.351689,72.4193291 L104.351689,72.4193291 L104.156377,72.4193291 C103.349085,72.4193291 102.593877,72.6276624 101.890752,73.0443291 C100.823043,73.6953707 100.198043,74.6719332 100.015752,75.9740166 C99.8595017,77.2760999 100.224085,78.2917249 101.109502,79.0208916 C103.713668,81.1823499 105.015752,82.3802666 105.015752,82.6146416 C105.015752,82.9271416 104.742314,83.0964124 104.195439,83.1224541 C103.648564,83.1484957 102.906377,83.0313082 101.968877,82.7708916 C100.744918,82.4583916 100.041793,82.4323499 99.8595017,82.6927666 C99.67721,82.9792249 99.599085,83.2526624 99.6251267,83.5130791 C99.6251267,83.9297457 99.8725225,84.3333916 100.367314,84.7240166 C101.174606,85.2969332 102.320439,85.5964124 103.804814,85.6224541 L103.804814,85.6224541 L103.922002,85.6224541 Z M113.864189,85.3880791 C114.124606,85.3880791 114.398043,85.3620374 114.684502,85.3099541 C115.28346,85.1797457 115.830335,84.8672457 116.325127,84.3724541 C116.819918,83.9037041 117.028252,83.4609957 116.950127,83.0443291 C116.924085,82.8620374 116.858981,82.7318291 116.754814,82.6537041 C116.676689,82.5755791 116.507418,82.5365166 116.247002,82.5365166 C116.012627,82.5104749 115.661064,82.5104749 115.192314,82.5365166 C114.437106,82.5885999 113.942314,82.5755791 113.707939,82.4974541 C113.499606,82.4193291 113.291273,82.1719332 113.082939,81.7552666 C112.614189,80.6875582 112.301689,79.5156832 112.145439,78.2396416 C113.056898,78.1354749 113.747002,78.0703707 114.215752,78.0443291 C115.361585,77.9141207 116.155856,77.7057874 116.598564,77.4193291 C116.885023,77.2370374 117.028252,77.0287041 117.028252,76.7943291 C117.028252,76.6380791 116.963148,76.4818291 116.832939,76.3255791 C116.806898,76.1693291 116.663668,76.0521416 116.403252,75.9740166 C116.168877,75.8698499 115.843356,75.8047457 115.426689,75.7787041 C115.010023,75.7266207 114.606377,75.6875582 114.215752,75.6615166 C113.799085,75.6354749 113.356377,75.6224541 112.887627,75.6224541 C112.418877,75.5964124 112.080335,75.5703707 111.872002,75.5443291 C112.340752,71.7422457 112.145439,69.8412041 111.286064,69.8412041 C111.129814,69.8412041 110.934502,69.9323499 110.700127,70.1146416 C110.075127,70.5573499 109.65846,72.0156832 109.450127,74.4896416 C109.398043,75.2448499 109.372002,75.9609957 109.372002,76.6380791 C109.372002,78.2266207 109.528252,79.6328707 109.840752,80.8568291 C110.28346,82.6276624 110.90846,83.8646416 111.715752,84.5677666 C112.31471,85.1146416 113.030856,85.3880791 113.864189,85.3880791 Z M120.798564,85.1537041 C121.006898,85.1537041 121.176168,85.1146416 121.306377,85.0365166 C121.51471,84.9063082 121.592835,83.7083916 121.540752,81.4427666 C121.488668,78.7344332 121.788148,76.9245374 122.439189,76.0130791 C123.116273,75.1276624 124.249085,74.9453707 125.837627,75.4662041 C127.504293,76.0130791 128.337627,75.8698499 128.337627,75.0365166 C128.337627,74.2292249 127.595439,73.5781832 126.111064,73.0833916 C125.486064,72.8750582 124.900127,72.7708916 124.353252,72.7708916 C123.676168,72.7708916 123.038148,72.9271416 122.439189,73.2396416 C121.788148,73.5260999 121.35846,73.7734957 121.150127,73.9818291 C120.967835,74.1641207 120.694398,74.0990166 120.329814,73.7865166 C119.913148,73.4479749 119.535543,73.3438082 119.197002,73.4740166 C118.962627,73.5781832 118.819398,73.9167249 118.767314,74.4896416 L118.767314,74.4896416 L118.767314,75.1537041 C118.767314,75.9349541 118.806377,77.1719332 118.884502,78.8646416 C119.01471,82.1979749 119.144918,84.0469332 119.275127,84.4115166 C119.379293,84.6979749 119.678773,84.9063082 120.173564,85.0365166 C120.407939,85.1146416 120.616273,85.1537041 120.798564,85.1537041 Z M134.842314,84.4115166 C135.415231,84.4115166 135.988148,84.3464124 136.561064,84.2162041 C137.680856,83.9297457 138.579293,83.4349541 139.256377,82.7318291 C140.167835,81.7682874 140.688668,80.4401624 140.818877,78.7474541 C140.844918,78.5130791 140.857939,78.2917249 140.857939,78.0833916 C140.857939,76.7031832 140.532418,75.5313082 139.881377,74.5677666 C138.969918,73.2396416 137.680856,72.4714124 136.014189,72.2630791 C135.597523,72.2109957 135.24596,72.1849541 134.959502,72.1849541 C134.725127,72.1849541 134.542835,72.1979749 134.412627,72.2240166 C134.048043,72.3021416 133.579293,72.5625582 133.006377,73.0052666 C131.469918,73.9948499 130.428252,75.3099541 129.881377,76.9505791 C129.62096,77.7057874 129.490752,78.4349541 129.490752,79.1380791 C129.516793,79.9453707 129.686064,80.7266207 129.998564,81.4818291 C130.649606,82.8880791 131.756377,83.7995374 133.318877,84.2162041 C133.813668,84.3464124 134.321481,84.4115166 134.842314,84.4115166 Z M134.842314,81.6771416 C133.982939,81.6771416 133.357939,81.5339124 132.967314,81.2474541 C132.576689,80.9349541 132.316273,80.4141207 132.186064,79.6849541 C132.160023,79.4505791 132.147002,79.2162041 132.147002,78.9818291 C132.147002,77.9401624 132.58971,76.8333916 133.475127,75.6615166 C133.891793,75.0885999 134.451689,74.7500582 135.154814,74.6458916 C135.285023,74.6198499 135.415231,74.6068291 135.545439,74.6068291 C136.066273,74.6068291 136.561064,74.7760999 137.029814,75.1146416 C137.550648,75.4792249 137.915231,76.0912041 138.123564,76.9505791 C138.227731,77.3672457 138.279814,77.7839124 138.279814,78.2005791 C138.279814,78.6172457 138.227731,79.0208916 138.123564,79.4115166 C137.941273,80.2188082 137.58971,80.7917249 137.068877,81.1302666 C136.548043,81.4948499 135.805856,81.6771416 134.842314,81.6771416 Z M152.362627,85.1927666 C152.909502,85.1927666 153.222002,84.8542249 153.300127,84.1771416 L153.300127,84.1771416 L153.300127,83.7474541 C153.300127,82.9662041 153.182939,81.7162041 152.948564,79.9974541 C152.688148,78.0182874 152.375648,76.5859957 152.011064,75.7005791 C151.672523,74.8151624 151.151689,74.0859957 150.448564,73.5130791 C149.849606,73.0182874 149.172523,72.7708916 148.417314,72.7708916 C147.740231,72.7708916 146.998043,72.9531832 146.190752,73.3177666 C143.794918,74.3854749 142.597002,76.7292249 142.597002,80.3490166 C142.597002,80.6875582 142.610023,81.0391207 142.636064,81.4037041 C142.688148,82.8880791 142.844398,83.9167249 143.104814,84.4896416 C143.365231,85.0885999 143.755856,85.2969332 144.276689,85.1146416 C144.615231,84.9844332 144.784502,84.0469332 144.784502,82.3021416 C144.784502,79.0729749 145.344398,76.9896416 146.464189,76.0521416 C147.740231,74.9583916 148.742835,74.9583916 149.472002,76.0521416 C149.680335,76.2344332 149.992835,77.6927666 150.409502,80.4271416 C150.85221,83.1354749 151.138668,84.5938082 151.268877,84.8021416 C151.47721,85.0625582 151.841793,85.1927666 152.362627,85.1927666 Z M159.218877,91.7552666 C162.005335,91.7552666 163.906377,90.7917249 164.922002,88.8646416 C165.338668,88.1094332 165.573043,86.8333916 165.625127,85.0365166 L165.625127,85.0365166 L165.625127,84.3724541 C165.625127,82.8620374 165.494918,81.4688082 165.234502,80.1927666 C164.974085,78.9688082 164.726689,77.9792249 164.492314,77.2240166 C164.205856,76.0781832 163.724085,75.0885999 163.047002,74.2552666 C162.369918,73.3958916 161.718877,72.8750582 161.093877,72.6927666 C160.52096,72.5104749 159.961064,72.4193291 159.414189,72.4193291 C158.502731,72.4193291 157.669398,72.6797457 156.914189,73.2005791 C155.716273,74.0339124 154.869918,75.2188082 154.375127,76.7552666 C154.218877,77.2500582 154.140752,77.7448499 154.140752,78.2396416 C154.140752,78.9688082 154.310023,79.6979749 154.648564,80.4271416 C155.221481,81.6250582 156.054814,82.4323499 157.148564,82.8490166 C158.268356,83.2917249 159.531377,83.1484957 160.937627,82.4193291 C161.536585,82.1068291 161.979293,81.8594332 162.265752,81.6771416 C162.526168,82.2500582 162.70846,83.1094332 162.812627,84.2552666 C162.890752,85.4010999 162.734502,86.3906832 162.343877,87.2240166 C162.005335,87.9531832 161.575648,88.4219332 161.054814,88.6302666 C160.533981,88.8385999 159.882939,88.8776624 159.101689,88.7474541 C158.554814,88.6693291 157.825648,88.4089124 156.914189,87.9662041 C156.028773,87.6276624 155.494918,88.0182874 155.312627,89.1380791 C155.182418,90.7266207 156.484502,91.5990166 159.218877,91.7552666 Z M158.867314,80.5443291 C158.815231,80.5443291 158.763148,80.5313082 158.711064,80.5052666 C158.320439,80.4792249 158.02096,80.4010999 157.812627,80.2708916 C157.500127,80.0625582 157.265752,79.7891207 157.109502,79.4505791 C156.92721,79.0859957 156.836064,78.6823499 156.836064,78.2396416 C156.836064,77.2500582 157.213668,76.4557874 157.968877,75.8568291 C158.48971,75.4401624 158.932418,75.1797457 159.297002,75.0755791 C159.42721,75.0234957 159.557418,74.9974541 159.687627,74.9974541 C159.89596,74.9974541 160.104293,75.0495374 160.312627,75.1537041 C160.599085,75.3359957 160.859502,75.7266207 161.093877,76.3255791 C161.30221,77.0026624 161.406377,77.5885999 161.406377,78.0833916 C161.406377,78.2656832 161.393356,78.4349541 161.367314,78.5912041 C161.263148,79.1380791 160.846481,79.6328707 160.117314,80.0755791 C159.648564,80.3620374 159.231898,80.5182874 158.867314,80.5443291 Z M172.872002,84.5287041 C173.15846,84.5287041 173.366793,84.5156832 173.497002,84.4896416 C173.809502,84.4115166 174.174085,84.1771416 174.590752,83.7865166 C175.059502,83.3177666 175.293877,82.9662041 175.293877,82.7318291 C175.293877,82.3672457 174.382418,82.1198499 172.559502,81.9896416 C171.153252,81.9115166 170.215752,81.7422457 169.747002,81.4818291 C169.25221,81.2214124 168.965752,80.7656832 168.887627,80.1146416 C168.835543,79.7500582 168.874606,79.5287041 169.004814,79.4505791 C169.135023,79.3724541 169.577731,79.3464124 170.332939,79.3724541 C172.312106,79.5026624 173.926689,78.8646416 175.176689,77.4583916 C175.931898,76.6510999 176.309502,75.8438082 176.309502,75.0365166 C176.309502,74.7500582 176.257418,74.4505791 176.153252,74.1380791 C175.866793,73.4349541 174.903252,72.9662041 173.262627,72.7318291 C172.84596,72.6797457 172.442314,72.6537041 172.051689,72.6537041 C170.983981,72.6537041 170.085543,72.8750582 169.356377,73.3177666 C168.679293,73.7344332 168.067314,74.4505791 167.520439,75.4662041 C166.973564,76.4818291 166.635023,77.5104749 166.504814,78.5521416 C166.452731,78.9167249 166.426689,79.2552666 166.426689,79.5677666 C166.426689,82.5885999 168.119398,84.2162041 171.504814,84.4505791 C172.051689,84.5026624 172.507418,84.5287041 172.872002,84.5287041 Z M170.489189,77.1849541 C170.124606,77.1849541 169.87721,77.1198499 169.747002,76.9896416 C169.668877,76.9115166 169.629814,76.8203707 169.629814,76.7162041 C169.629814,76.6120374 169.668877,76.5078707 169.747002,76.4037041 C169.87721,76.1432874 170.124606,75.8698499 170.489189,75.5833916 C171.010023,75.1927666 171.661064,74.9974541 172.442314,74.9974541 C173.223564,74.9974541 173.614189,75.1927666 173.614189,75.5833916 C173.614189,75.8698499 173.236585,76.2083916 172.481377,76.5990166 C171.75221,76.9896416 171.088148,77.1849541 170.489189,77.1849541 Z M181.251689,85.1537041 C181.460023,85.1537041 181.629293,85.1146416 181.759502,85.0365166 C181.967835,84.9063082 182.04596,83.7083916 181.993877,81.4427666 C181.941793,78.7344332 182.241273,76.9245374 182.892314,76.0130791 C183.569398,75.1276624 184.70221,74.9453707 186.290752,75.4662041 C187.957418,76.0130791 188.790752,75.8698499 188.790752,75.0365166 C188.790752,74.2292249 188.048564,73.5781832 186.564189,73.0833916 C185.939189,72.8750582 185.353252,72.7708916 184.806377,72.7708916 C184.129293,72.7708916 183.491273,72.9271416 182.892314,73.2396416 C182.241273,73.5260999 181.811585,73.7734957 181.603252,73.9818291 C181.42096,74.1641207 181.147523,74.0990166 180.782939,73.7865166 C180.366273,73.4479749 179.988668,73.3438082 179.650127,73.4740166 C179.415752,73.5781832 179.272523,73.9167249 179.220439,74.4896416 L179.220439,74.4896416 L179.220439,75.1537041 C179.220439,75.9349541 179.259502,77.1719332 179.337627,78.8646416 C179.467835,82.1979749 179.598043,84.0469332 179.728252,84.4115166 C179.832418,84.6979749 180.131898,84.9063082 180.626689,85.0365166 C180.861064,85.1146416 181.069398,85.1537041 181.251689,85.1537041 Z M104.351689,105.388079 C104.612106,105.388079 104.885543,105.362037 105.172002,105.309954 C105.77096,105.179746 106.317835,104.867246 106.812627,104.372454 C107.307418,103.903704 107.515752,103.460996 107.437627,103.044329 C107.411585,102.862037 107.346481,102.731829 107.242314,102.653704 C107.164189,102.575579 106.994918,102.536517 106.734502,102.536517 C106.500127,102.510475 106.148564,102.510475 105.679814,102.536517 C104.924606,102.5886 104.429814,102.575579 104.195439,102.497454 C103.987106,102.419329 103.778773,102.171933 103.570439,101.755267 C103.101689,100.687558 102.789189,99.5156832 102.632939,98.2396416 C103.544398,98.1354749 104.234502,98.0703707 104.703252,98.0443291 C105.849085,97.9141207 106.643356,97.7057874 107.086064,97.4193291 C107.372523,97.2370374 107.515752,97.0287041 107.515752,96.7943291 C107.515752,96.6380791 107.450648,96.4818291 107.320439,96.3255791 C107.294398,96.1693291 107.151168,96.0521416 106.890752,95.9740166 C106.656377,95.8698499 106.330856,95.8047457 105.914189,95.7787041 C105.497523,95.7266207 105.093877,95.6875582 104.703252,95.6615166 C104.286585,95.6354749 103.843877,95.6224541 103.375127,95.6224541 C102.906377,95.5964124 102.567835,95.5703707 102.359502,95.5443291 C102.828252,91.7422457 102.632939,89.8412041 101.773564,89.8412041 C101.617314,89.8412041 101.422002,89.9323499 101.187627,90.1146416 C100.562627,90.5573499 100.14596,92.0156832 99.9376267,94.4896416 C99.8855434,95.2448499 99.8595017,95.9609957 99.8595017,96.6380791 C99.8595017,98.2266207 100.015752,99.6328707 100.328252,100.856829 C100.77096,102.627662 101.39596,103.864642 102.203252,104.567767 C102.80221,105.114642 103.518356,105.388079 104.351689,105.388079 Z M115.153252,104.528704 C115.43971,104.528704 115.648043,104.515683 115.778252,104.489642 C116.090752,104.411517 116.455335,104.177142 116.872002,103.786517 C117.340752,103.317767 117.575127,102.966204 117.575127,102.731829 C117.575127,102.367246 116.663668,102.11985 114.840752,101.989642 C113.434502,101.911517 112.497002,101.742246 112.028252,101.481829 C111.53346,101.221412 111.247002,100.765683 111.168877,100.114642 C111.116793,99.7500582 111.155856,99.5287041 111.286064,99.4505791 C111.416273,99.3724541 111.858981,99.3464124 112.614189,99.3724541 C114.593356,99.5026624 116.207939,98.8646416 117.457939,97.4583916 C118.213148,96.6510999 118.590752,95.8438082 118.590752,95.0365166 C118.590752,94.7500582 118.538668,94.4505791 118.434502,94.1380791 C118.148043,93.4349541 117.184502,92.9662041 115.543877,92.7318291 C115.12721,92.6797457 114.723564,92.6537041 114.332939,92.6537041 C113.265231,92.6537041 112.366793,92.8750582 111.637627,93.3177666 C110.960543,93.7344332 110.348564,94.4505791 109.801689,95.4662041 C109.254814,96.4818291 108.916273,97.5104749 108.786064,98.5521416 C108.733981,98.9167249 108.707939,99.2552666 108.707939,99.5677666 C108.707939,102.5886 110.400648,104.216204 113.786064,104.450579 C114.332939,104.502662 114.788668,104.528704 115.153252,104.528704 Z M112.770439,97.1849541 C112.405856,97.1849541 112.15846,97.1198499 112.028252,96.9896416 C111.950127,96.9115166 111.911064,96.8203707 111.911064,96.7162041 C111.911064,96.6120374 111.950127,96.5078707 112.028252,96.4037041 C112.15846,96.1432874 112.405856,95.8698499 112.770439,95.5833916 C113.291273,95.1927666 113.942314,94.9974541 114.723564,94.9974541 C115.504814,94.9974541 115.895439,95.1927666 115.895439,95.5833916 C115.895439,95.8698499 115.517835,96.2083916 114.762627,96.5990166 C114.03346,96.9896416 113.369398,97.1849541 112.770439,97.1849541 Z M124.626689,106.481829 C125.173564,106.481829 125.941793,106.325579 126.931377,106.013079 C127.92096,105.726621 128.493877,105.505267 128.650127,105.349017 C129.066793,105.036517 129.431377,104.580787 129.743877,103.981829 C130.10846,103.356829 130.303773,102.718808 130.329814,102.067767 C130.355856,101.989642 130.368877,101.911517 130.368877,101.833392 C130.368877,101.18235 130.26471,100.309954 130.056377,99.2162041 C129.717835,97.1849541 129.236064,95.7005791 128.611064,94.7630791 C127.960023,93.7995374 126.957418,93.2526624 125.603252,93.1224541 L125.603252,93.1224541 L124.939189,93.1224541 C124.470439,93.1224541 124.066793,93.1615166 123.728252,93.2396416 C123.23346,93.3438082 122.790752,93.5912041 122.400127,93.9818291 C121.931377,94.4505791 121.631898,94.9193291 121.501689,95.3880791 C121.345439,95.8568291 121.35846,96.2344332 121.540752,96.5208916 C121.905335,97.1198499 122.491273,96.9635999 123.298564,96.0521416 C123.793356,95.5573499 124.32721,95.2969332 124.900127,95.2708916 C125.499085,95.2708916 125.967835,95.5052666 126.306377,95.9740166 C126.540752,96.3646416 126.683981,96.6380791 126.736064,96.7943291 C126.788148,96.9505791 126.749085,97.0547457 126.618877,97.1068291 C126.488668,97.1589124 126.241273,97.1849541 125.876689,97.1849541 C124.626689,97.1849541 123.454814,97.7448499 122.361064,98.8646416 C121.293356,99.9844332 120.759502,101.18235 120.759502,102.458392 C120.759502,103.604225 121.124085,104.554746 121.853252,105.309954 C122.582418,106.091204 123.506898,106.481829 124.626689,106.481829 Z M124.548564,103.825579 C124.366273,103.825579 124.210023,103.799537 124.079814,103.747454 C123.663148,103.565162 123.428773,103.109433 123.376689,102.380267 L123.376689,102.380267 L123.376689,102.224017 C123.376689,101.911517 123.428773,101.6511 123.532939,101.442767 C123.689189,101.18235 123.988668,100.843808 124.431377,100.427142 C125.160543,99.7760999 125.759502,99.4505791 126.228252,99.4505791 C126.644918,99.4505791 126.957418,99.7240166 127.165752,100.270892 C127.374085,100.739642 127.478252,101.312558 127.478252,101.989642 C127.478252,102.380267 127.387106,102.666725 127.204814,102.849017 C127.022523,103.031308 126.618877,103.239642 125.993877,103.474017 C125.394918,103.708392 124.913148,103.825579 124.548564,103.825579 Z M140.193877,104.880267 C140.792835,104.880267 141.196481,104.671933 141.404814,104.255267 C141.587106,103.8386 141.678252,102.953183 141.678252,101.599017 C141.678252,100.192767 141.795439,98.9948499 142.029814,98.0052666 C142.238148,97.0156832 142.524606,96.4557874 142.889189,96.3255791 C143.175648,96.1953707 143.579293,96.3906832 144.100127,96.9115166 C144.62096,97.4063082 144.985543,97.9662041 145.193877,98.5912041 C145.324085,98.9818291 145.532418,100.036517 145.818877,101.755267 C146.235543,104.072975 146.977731,105.075579 148.045439,104.763079 C148.488148,104.632871 148.748564,104.411517 148.826689,104.099017 C148.852731,104.020892 148.865752,103.890683 148.865752,103.708392 C148.865752,103.2136 148.748564,102.315162 148.514189,101.013079 C148.227731,99.2943291 147.915231,98.0313082 147.576689,97.2240166 C147.316273,96.4948499 146.769398,95.7396416 145.936064,94.9583916 C145.128773,94.1771416 144.425648,93.7214124 143.826689,93.5912041 C143.253773,93.4870374 142.628773,93.5521416 141.951689,93.7865166 C141.300648,94.0208916 140.831898,94.3594332 140.545439,94.8021416 C140.285023,95.1667249 140.115752,95.4141207 140.037627,95.5443291 C139.490752,94.9974541 139.087106,94.5807874 138.826689,94.2943291 C138.331898,93.7474541 137.928252,93.3958916 137.615752,93.2396416 C137.303252,93.1094332 136.847523,93.0443291 136.248564,93.0443291 C135.649606,93.0443291 135.206898,93.1094332 134.920439,93.2396416 C134.607939,93.3958916 134.191273,93.7474541 133.670439,94.2943291 C132.238148,95.8047457 131.522002,97.7188082 131.522002,100.036517 C131.522002,100.427142 131.548043,100.843808 131.600127,101.286517 C131.704293,102.562558 131.873564,103.421933 132.107939,103.864642 C132.342314,104.333392 132.693877,104.528704 133.162627,104.450579 C133.475127,104.424537 133.670439,104.268287 133.748564,103.981829 C133.826689,103.669329 133.917835,102.849017 134.022002,101.520892 C134.126168,99.7240166 134.399606,98.2787041 134.842314,97.1849541 C135.415231,95.7787041 136.040231,95.3490166 136.717314,95.8958916 C136.977731,96.1302666 137.316273,96.9245374 137.732939,98.2787041 C138.175648,99.6589124 138.488148,100.947975 138.670439,102.145892 C138.800648,103.187558 138.969918,103.903704 139.178252,104.294329 C139.412627,104.684954 139.751168,104.880267 140.193877,104.880267 Z M154.706377,105.622454 C156.998043,105.622454 158.19596,104.763079 158.300127,103.044329 C158.326168,102.888079 158.339189,102.74485 158.339189,102.614642 C158.339189,102.250058 158.287106,101.950579 158.182939,101.716204 C158.052731,101.403704 157.740231,100.960996 157.245439,100.388079 C156.360023,99.4505791 155.487627,98.6953707 154.628252,98.1224541 C153.690752,97.4453707 153.222002,96.8724541 153.222002,96.4037041 C153.222002,95.8307874 153.50846,95.3880791 154.081377,95.0755791 C154.628252,94.7630791 155.292314,94.6719332 156.073564,94.8021416 C156.854814,94.9323499 157.336585,94.8542249 157.518877,94.5677666 C157.701168,94.2813082 157.557939,93.8385999 157.089189,93.2396416 C156.646481,92.7188082 155.995439,92.4453707 155.136064,92.4193291 L155.136064,92.4193291 L154.940752,92.4193291 C154.13346,92.4193291 153.378252,92.6276624 152.675127,93.0443291 C151.607418,93.6953707 150.982418,94.6719332 150.800127,95.9740166 C150.643877,97.2760999 151.00846,98.2917249 151.893877,99.0208916 C154.498043,101.18235 155.800127,102.380267 155.800127,102.614642 C155.800127,102.927142 155.526689,103.096412 154.979814,103.122454 C154.432939,103.148496 153.690752,103.031308 152.753252,102.770892 C151.529293,102.458392 150.826168,102.43235 150.643877,102.692767 C150.461585,102.979225 150.38346,103.252662 150.409502,103.513079 C150.409502,103.929746 150.656898,104.333392 151.151689,104.724017 C151.958981,105.296933 153.104814,105.596412 154.589189,105.622454 L154.589189,105.622454 L154.706377,105.622454 Z" id="Buildstrongerteams" stroke="#002E8C" stroke-width="0.6" transform="translate(144.205498, 76.403704) rotate(-5.000000) translate(-144.205498, -76.403704) "></path>
            </g>
        </g>
    </g>
</svg>