<?xml version="1.0" encoding="UTF-8"?>
<svg width="1127px" height="591px" viewBox="0 0 1127 591" version="1.1" xmlns="http://www.w3.org/2000/svg" xmlns:xlink="http://www.w3.org/1999/xlink">
    <title>Rectangle</title>
    <g id="Page-1" stroke="none" stroke-width="1" fill="none" fill-rule="evenodd">
        <g id="Artboard" fill="#FFEEF2">
            <path d="M5.89245605,6.05487061 C93.3872562,13.7366927 146.057295,17.8380659 163.902573,18.3589901 C190.670491,19.1403764 307.515579,9.93802768 340.446594,9.93802768 C373.377609,9.93802768 543.097802,-0.00430423961 577,-0.00430423961 C610.902198,-0.00430423961 880.596748,9.93802768 913.721707,9.93802768 C935.805013,9.93802768 1006.89778,6.62391704 1127,-0.00430423961 C1112.4858,84.5130608 1105.22869,132.87532 1105.22869,145.082474 C1105.22869,163.393205 1125.94333,225.844431 1127,253.381572 C1128.05667,280.918713 1110.73958,407.705141 1110.73958,434.672608 C1110.73958,452.65092 1114.20778,502.154419 1121.14417,583.183105 C889.684682,565.054099 760.460023,555.989596 733.470188,555.989596 C692.985436,555.989596 503.224726,590.209627 471.412791,591 C439.600857,591.790373 282.235211,564.759988 241.269709,564.759988 C213.959375,564.759988 133.536139,573.506659 -1.50987556e-12,591 C7.66808311,512.00486 11.5021247,462.980139 11.5021247,443.925835 C11.5021247,415.34438 -0.471402056,293.316094 3.06619313e-13,268.950045 C0.471402056,244.583997 17.2837505,165.830625 17.2837505,145.082474 C17.2837505,131.250374 13.4866524,84.9078395 5.89245605,6.05487061 Z" id="Rectangle"></path>
        </g>
    </g>
</svg>